<mxfile host="app.diagrams.net" modified="2020-10-06T10:15:24.415Z" agent="5.0 (Macintosh; Intel Mac OS X 10_15_4) AppleWebKit/537.36 (KHTML, like Gecko) Chrome/85.0.4183.121 Safari/537.36" etag="DDKGEE-_6rAmtGCuiFst" version="13.7.7" type="github">
  <diagram id="naX_vQBifUbzJnfRw_EL" name="Page-1">
    <mxGraphModel dx="1186" dy="1841" grid="1" gridSize="10" guides="1" tooltips="1" connect="1" arrows="1" fold="1" page="1" pageScale="1" pageWidth="850" pageHeight="1100" math="0" shadow="0">
      <root>
        <mxCell id="0" />
        <mxCell id="1" parent="0" />
        <mxCell id="_PZXknk2SSKi8Nk2z_4u-1" value="&lt;font style=&quot;font-size: 16px&quot;&gt;FiberRootNode&lt;/font&gt;" style="rounded=1;whiteSpace=wrap;html=1;strokeWidth=3;strokeColor=#6495ED;" vertex="1" parent="1">
          <mxGeometry x="417" y="-640" width="180" height="40" as="geometry" />
        </mxCell>
        <mxCell id="_PZXknk2SSKi8Nk2z_4u-2" value="&lt;font style=&quot;font-size: 16px&quot;&gt;rootFiber&lt;/font&gt;" style="rounded=1;whiteSpace=wrap;html=1;strokeWidth=3;strokeColor=#6495ED;" vertex="1" parent="1">
          <mxGeometry x="327" y="-470" width="120" height="40" as="geometry" />
        </mxCell>
        <mxCell id="_PZXknk2SSKi8Nk2z_4u-4" value="" style="endArrow=classic;html=1;exitX=0.25;exitY=1;exitDx=0;exitDy=0;entryX=0.25;entryY=0;entryDx=0;entryDy=0;" edge="1" parent="1" source="_PZXknk2SSKi8Nk2z_4u-1" target="_PZXknk2SSKi8Nk2z_4u-2">
          <mxGeometry relative="1" as="geometry">
            <mxPoint x="367" y="-360" as="sourcePoint" />
            <mxPoint x="467" y="-360" as="targetPoint" />
            <Array as="points" />
          </mxGeometry>
        </mxCell>
        <mxCell id="_PZXknk2SSKi8Nk2z_4u-5" value="&lt;font style=&quot;font-size: 16px&quot;&gt;current&lt;/font&gt;" style="edgeLabel;resizable=0;html=1;align=center;verticalAlign=middle;" connectable="0" vertex="1" parent="_PZXknk2SSKi8Nk2z_4u-4">
          <mxGeometry relative="1" as="geometry" />
        </mxCell>
        <mxCell id="_PZXknk2SSKi8Nk2z_4u-6" value="" style="endArrow=classic;startArrow=classic;html=1;exitX=1;exitY=0.5;exitDx=0;exitDy=0;" edge="1" parent="1" source="_PZXknk2SSKi8Nk2z_4u-2" target="_PZXknk2SSKi8Nk2z_4u-7">
          <mxGeometry width="50" height="50" relative="1" as="geometry">
            <mxPoint x="370" y="-410" as="sourcePoint" />
            <mxPoint x="570" y="-450" as="targetPoint" />
          </mxGeometry>
        </mxCell>
        <mxCell id="_PZXknk2SSKi8Nk2z_4u-7" value="&lt;font style=&quot;font-size: 16px&quot;&gt;rootFiber&lt;/font&gt;" style="rounded=1;whiteSpace=wrap;html=1;strokeWidth=3;strokeColor=#6495ED;" vertex="1" parent="1">
          <mxGeometry x="610" y="-470" width="120" height="40" as="geometry" />
        </mxCell>
        <mxCell id="_PZXknk2SSKi8Nk2z_4u-8" value="&lt;font style=&quot;font-size: 16px&quot;&gt;alternate&lt;/font&gt;" style="text;html=1;align=center;verticalAlign=middle;resizable=0;points=[];autosize=1;" vertex="1" parent="1">
          <mxGeometry x="480" y="-480" width="80" height="20" as="geometry" />
        </mxCell>
        <mxCell id="_PZXknk2SSKi8Nk2z_4u-9" value="" style="endArrow=classic;html=1;exitX=0.5;exitY=1;exitDx=0;exitDy=0;" edge="1" parent="1" source="_PZXknk2SSKi8Nk2z_4u-7" target="_PZXknk2SSKi8Nk2z_4u-10">
          <mxGeometry width="50" height="50" relative="1" as="geometry">
            <mxPoint x="440" y="-400" as="sourcePoint" />
            <mxPoint x="670" y="-310" as="targetPoint" />
          </mxGeometry>
        </mxCell>
        <mxCell id="_PZXknk2SSKi8Nk2z_4u-10" value="App" style="rounded=1;whiteSpace=wrap;html=1;strokeColor=#6495ED;strokeWidth=3;" vertex="1" parent="1">
          <mxGeometry x="610" y="-370" width="120" height="40" as="geometry" />
        </mxCell>
        <mxCell id="_PZXknk2SSKi8Nk2z_4u-11" value="" style="endArrow=classic;html=1;exitX=0.5;exitY=1;exitDx=0;exitDy=0;" edge="1" parent="1" source="_PZXknk2SSKi8Nk2z_4u-10" target="_PZXknk2SSKi8Nk2z_4u-12">
          <mxGeometry width="50" height="50" relative="1" as="geometry">
            <mxPoint x="510" y="-400" as="sourcePoint" />
            <mxPoint x="670" y="-280" as="targetPoint" />
          </mxGeometry>
        </mxCell>
        <mxCell id="_PZXknk2SSKi8Nk2z_4u-12" value="p" style="rounded=1;whiteSpace=wrap;html=1;strokeWidth=3;strokeColor=#6495ED;" vertex="1" parent="1">
          <mxGeometry x="610" y="-300" width="120" height="30" as="geometry" />
        </mxCell>
        <mxCell id="_PZXknk2SSKi8Nk2z_4u-13" value="" style="endArrow=classic;html=1;exitX=0.5;exitY=1;exitDx=0;exitDy=0;" edge="1" parent="1" source="_PZXknk2SSKi8Nk2z_4u-12" target="_PZXknk2SSKi8Nk2z_4u-15">
          <mxGeometry width="50" height="50" relative="1" as="geometry">
            <mxPoint x="510" y="-400" as="sourcePoint" />
            <mxPoint x="670" y="-240" as="targetPoint" />
          </mxGeometry>
        </mxCell>
        <mxCell id="_PZXknk2SSKi8Nk2z_4u-15" value="&lt;font style=&quot;font-size: 14px&quot;&gt;0&lt;/font&gt;" style="rounded=1;whiteSpace=wrap;html=1;strokeWidth=3;strokeColor=#6495ED;" vertex="1" parent="1">
          <mxGeometry x="610" y="-230" width="120" height="40" as="geometry" />
        </mxCell>
        <mxCell id="_PZXknk2SSKi8Nk2z_4u-16" value="" style="endArrow=none;dashed=1;html=1;dashPattern=1 3;strokeWidth=2;" edge="1" parent="1">
          <mxGeometry width="50" height="50" relative="1" as="geometry">
            <mxPoint x="520" y="-90" as="sourcePoint" />
            <mxPoint x="520" y="-810" as="targetPoint" />
          </mxGeometry>
        </mxCell>
        <mxCell id="_PZXknk2SSKi8Nk2z_4u-18" value="&lt;h1&gt;页面显示的Fiber树&lt;/h1&gt;" style="text;html=1;strokeColor=none;fillColor=none;spacing=5;spacingTop=-20;whiteSpace=wrap;overflow=hidden;rounded=0;" vertex="1" parent="1">
          <mxGeometry x="300" y="-770" width="217" height="50" as="geometry" />
        </mxCell>
        <mxCell id="_PZXknk2SSKi8Nk2z_4u-19" value="&lt;h1&gt;内存中构建的树&lt;/h1&gt;" style="text;html=1;strokeColor=none;fillColor=none;spacing=5;spacingTop=-20;whiteSpace=wrap;overflow=hidden;rounded=0;" vertex="1" parent="1">
          <mxGeometry x="530" y="-770" width="190" height="50" as="geometry" />
        </mxCell>
      </root>
    </mxGraphModel>
  </diagram>
</mxfile>
